# xmcd CD database file
#
# Track frame offsets:
#	182
#	13715
#	30562
#	43425
#	61470
#	75910
#	97352
#	119270
#	133407
#	149997
#	165055
#
# Disc length: 2415 seconds
#
# Revision: 0
# Processed by: cddbd v1.4PL0 Copyright (c) Steve Scherf et al.
# Submitted via: CDex 1.51
#
DISCID=9d096d0b
DTITLE=Susan Marshall - I used to hate Honky Tonks
DYEAR=1992
DGENRE=Country
TTITLE0=Too many lovers
TTITLE1=Behind the wire
TTITLE2=Now stop
TTITLE3=Yesterday's fire
TTITLE4=We're talkin' love
TTITLE5=Rock'n roll 'til the cows come home
TTITLE6=I used to hate honky tonks
TTITLE7=It's a cover up
TTITLE8=Are you sure Hank done it this way
TTITLE9=When you walk in the room
TTITLE10=You must've been Jesse James
EXTD=YEAR: 1992
EXTT0=
EXTT1=
EXTT2=
EXTT3=
EXTT4=
EXTT5=
EXTT6=
EXTT7=
EXTT8=
EXTT9=
EXTT10=
PLAYORDER=
